<svg xmlns="http://www.w3.org/2000/svg" width="226" height="194" viewBox="0 0 226 194" fill="none">
    <path d="M126.188 153.739C126.239 151.793 125.354 149.949 123.812 148.761C124.014 148.129 124.115 147.447 124.115 146.79C124.115 145.248 123.584 143.732 122.573 142.57C122.725 142.064 122.801 141.534 122.801 141.003C122.952 138.729 121.461 136.682 119.261 136.101V136.025C119.464 133.523 117.618 131.3 115.116 131.047C112.613 131.3 110.742 133.498 110.97 136.025V136.101C108.771 136.682 107.304 138.729 107.431 141.003C107.431 141.534 107.507 142.064 107.658 142.57C106.647 143.732 106.116 145.248 106.116 146.79C106.116 147.472 106.217 148.129 106.42 148.761C104.877 149.949 103.993 151.793 104.043 153.739C103.866 156.443 105.661 158.869 108.29 159.501V159.551H115.116V180.525H116.076V159.551H121.966V159.501C124.57 158.869 126.365 156.443 126.188 153.739Z" fill="#3B8B58"/>
    <path d="M145.375 152.882C145.425 150.456 144.338 148.131 142.392 146.64C142.644 145.831 142.771 144.997 142.771 144.164C142.796 142.218 142.113 140.348 140.849 138.882C141.026 138.25 141.128 137.568 141.153 136.911C141.33 134.081 139.484 131.503 136.729 130.771C136.729 130.745 136.729 130.695 136.729 130.669C136.982 127.511 134.656 124.756 131.521 124.453C128.387 124.756 126.061 127.536 126.314 130.669C126.314 130.695 126.314 130.745 126.314 130.771C123.558 131.503 121.713 134.056 121.89 136.911C121.89 137.568 121.991 138.25 122.193 138.882C120.929 140.348 120.247 142.243 120.272 144.164C120.272 144.997 120.398 145.831 120.651 146.64C118.73 148.131 117.618 150.456 117.668 152.882C117.441 156.242 119.691 159.3 122.977 160.083V160.159H131.547V186.44H132.76V160.159H140.116V160.083C143.377 159.3 145.627 156.268 145.4 152.882H145.375Z" fill="#339E33"/>
    <path d="M179.214 51.1457C179.214 53.2683 177.495 54.9867 175.372 54.9867C173.248 54.9867 171.529 53.2683 171.529 51.1457C171.529 49.023 173.248 47.3047 175.372 47.3047C177.495 47.3047 179.214 49.023 179.214 51.1457Z" fill="#4D7ABB"/>
    <path d="M175.396 47.3047H163.844V54.9867H175.396V47.3047Z" fill="#4D7ABB"/>
    <path d="M167.687 51.1457C167.687 53.2683 165.968 54.9867 163.844 54.9867C161.721 54.9867 160.002 53.2683 160.002 51.1457C160.002 49.023 161.721 47.3047 163.844 47.3047C165.968 47.3047 167.687 49.023 167.687 51.1457Z" fill="#3BA7BF"/>
    <path d="M163.34 182.096H175.878L172.997 54.3828H166.222L163.34 182.096Z" fill="#A5D7E2"/>
    <path d="M163.846 51.1459V0L170.899 27.3671L163.846 51.1459Z" fill="#3BA7BF"/>
    <path d="M163.846 51.1484L200.021 87.3094L175.651 72.9309L163.846 51.1484Z" fill="#3BA7BF"/>
    <path d="M127.645 87.3094L163.845 51.1484L139.475 65.5269L127.645 87.3094Z" fill="#3BA7BF"/>
    <path d="M186.824 169.989H211.143L203.483 139.438H179.164L186.824 169.989Z" fill="#4D7ABB"/>
    <path d="M187.886 168.599H210.814L203.483 139.438H180.58L187.886 168.599Z" fill="#3BA7BF"/>
    <path d="M201.36 157.378H205.708L204.014 150.656H199.666L201.36 157.378Z" fill="#F2F4FF"/>
    <path d="M194.358 157.378H198.706L197.012 150.656H192.664L194.358 157.378Z" fill="#F2F4FF"/>
    <path d="M187.354 157.378H191.702L190.008 150.656H185.66L187.354 157.378Z" fill="#F2F4FF"/>
    <path d="M203.635 166.481H207.983L206.289 159.734H201.941L203.635 166.481Z" fill="#F2F4FF"/>
    <path d="M196.631 166.481H200.979L199.286 159.734H194.938L196.631 166.481Z" fill="#F2F4FF"/>
    <path d="M189.694 166.481H194.042L192.348 159.734H188L189.694 166.481Z" fill="#F2F4FF"/>
    <path d="M199.084 148.284H203.432L201.739 141.562H197.391L199.084 148.284Z" fill="#F2F4FF"/>
    <path d="M192.082 148.284H196.43L194.737 141.562H190.389L192.082 148.284Z" fill="#F2F4FF"/>
    <path d="M185.08 148.284H189.429L187.735 141.562H183.387L185.08 148.284Z" fill="#F2F4FF"/>
    <path d="M202.674 169.992V182.854" stroke="#252730" stroke-width="0.87" stroke-miterlimit="10"/>
    <path d="M193.473 169.992V182.854" stroke="#252730" stroke-width="0.87" stroke-miterlimit="10"/>
    <path d="M145.619 193.363H196.304C196.127 189.572 190.515 188.713 190.136 187.904C189.403 186.161 187.861 184.923 186.015 184.544C184.17 184.316 182.198 185.327 180.454 184.67C178.482 183.937 177.698 181.486 175.828 180.5C173.932 179.793 171.808 180.046 170.115 181.157C168.345 182.067 164.73 179.136 162.733 179.237C160.584 179.363 158.461 179.818 156.464 180.602C154.972 181.132 154.745 183.406 153.228 183.836C151.964 184.417 150.649 184.872 149.284 185.175C147.768 185.352 146.453 186.312 145.821 187.702C145.341 189.547 145.265 191.467 145.619 193.363Z" fill="#73C078"/>
    <path d="M225.627 193.518H151.912C152.165 192.28 161.695 191.067 162.226 189.904C163.263 187.428 165.462 185.634 168.091 185.128C170.568 185.078 173.046 184.724 175.447 184.067C178.253 183.031 179.972 180.782 182.601 179.367C185.205 178.078 188.239 178.103 190.817 179.468C193.345 180.782 196.985 178.508 199.817 178.634C202.951 178.811 205.833 180.327 207.78 182.778C209.246 184.547 211.294 185.785 213.543 186.24C215.743 186.872 218.119 185.785 220.394 186.013C223.706 186.341 226.107 189.273 225.779 192.583C225.754 192.886 225.703 193.215 225.602 193.518H225.627Z" fill="#339E33"/>
    <path d="M41.4499 184.013H29.1641L31.4392 127.484H39.1747L41.4499 184.013Z" fill="#FDD247"/>
    <path d="M39.0739 120.406H31.4395V124.197H39.0739V120.406Z" fill="#FDD247"/>
    <path d="M66.9575 190.676H24.4121V165.154L66.9575 139.328V190.676Z" fill="#EEC643"/>
    <path d="M95.7499 190.676H55.7324V164.143L95.7499 139.328V190.676Z" fill="#FDD247"/>
    <path d="M46.6821 96.043C46.6821 96.043 42.5362 77.0149 53.8362 71.0007C59.8021 67.3366 67.4618 68.0694 72.6188 72.7948C72.6188 72.7948 84.1968 48.4095 104.951 61.0949C123.506 72.441 108.313 93.1875 96.7607 96.0177C84.1463 99.3028 70.7229 96.2957 60.7122 87.9566C60.7122 87.9566 57.2995 98.949 46.6568 96.0177L46.6821 96.043Z" fill="#A5D7E2"/>
    <path d="M30.1763 112.317C30.1763 112.317 27.1428 98.3933 35.4092 94.0216C39.7573 91.343 45.3693 91.8736 49.1359 95.3356C49.1359 95.3356 57.6046 77.4952 72.7723 86.7945C86.3474 95.0829 75.2244 110.27 66.781 112.342C57.554 114.743 47.7456 112.544 40.4398 106.454C40.4398 106.454 37.9371 114.49 30.1763 112.342V112.317Z" fill="#A5D7E2"/>
    <path d="M185.779 193.669H0C3.10938 191.647 28.3383 188.615 35.543 187.099C43.6072 185.431 66.0553 184.092 103.216 180.099C122.252 178.052 150.666 180.453 163.938 183.864C170.232 185.481 174.782 187.806 185.779 193.669Z" fill="#59A960"/>
</svg>
